# xmcd
# Track frame offsets:
# 150
# 21259
# 33805
# 47058
# 62898
# 75650
# 85866
# 98754
# 113196
# 124562
# 137250
# 148238
#
# Disc length: 2179 seconds
# Revision: 0
# Processed by: cddbd v1.4PL0 Copyright (c) Steve Scherf et al.
# Submitted via: VisiTrax 2.9.5.180 - For more info visit www.synapsa.com
#
DISCID=9708810c
DTITLE=Haydon - Collage
DYEAR=1998
DGENRE=Bluegrass
TTITLE0=Cyclone
TTITLE1=Charmaine
TTITLE2=Amy J
TTITLE3=Big Ben
TTITLE4=Black buffalo rope
TTITLE5=Am Lynn's song
TTITLE6=Little girl blues
TTITLE7=Cedar Hill
TTITLE8=Amadillo breakdown
TTITLE9=Rickett's hornpipe
TTITLE10=Foxfire
TTITLE11=The wedding
EXTD=
EXTT0=
EXTT1=
EXTT2=
EXTT3=
EXTT4=
EXTT5=
EXTT6=
EXTT7=
EXTT8=
EXTT9=
EXTT10=
EXTT11=
PLAYORDER=
